<?xml version="1.0" standalone="no"?>
<!DOCTYPE svg PUBLIC "-//W3C//DTD SVG 20010904//EN"
 "http://www.w3.org/TR/2001/REC-SVG-20010904/DTD/svg10.dtd">
<svg version="1.0" xmlns="http://www.w3.org/2000/svg"
 width="512.000000pt" height="512.000000pt" viewBox="0 0 512.000000 512.000000"
 preserveAspectRatio="xMidYMid meet">
<metadata>
Created by potrace 1.14, written by Peter Selinger 2001-2017
</metadata>
<g transform="translate(0.000000,512.000000) scale(0.100000,-0.100000)"
fill="#000000" stroke="none">
<path d="M4930 4843 c-8 -3 -379 -147 -823 -319 -445 -173 -821 -314 -837
-314 -15 0 -92 31 -171 69 -302 145 -551 208 -870 218 -190 6 -337 -5 -497
-38 -900 -183 -1566 -886 -1708 -1799 -25 -159 -25 -464 0 -615 80 -495 299
-919 647 -1250 270 -258 596 -436 965 -528 194 -49 301 -61 514 -61 211 0 342
17 545 69 597 154 1100 561 1376 1115 100 201 161 387 200 605 21 113 24 161
23 365 -1 219 -3 245 -30 375 -50 242 -93 124 409 1097 469 909 459 886 417
955 -31 52 -104 77 -160 56z m-2196 -1202 c148 -52 272 -175 328 -326 31 -86
32 -264 1 -348 -114 -306 -463 -444 -747 -295 -84 44 -185 147 -224 228 -18
36 -39 99 -48 140 -57 270 120 545 394 615 77 20 218 13 296 -14z"/>
</g>
</svg>
