<?xml version="1.0" standalone="no"?>
<!DOCTYPE svg PUBLIC "-//W3C//DTD SVG 20010904//EN"
 "http://www.w3.org/TR/2001/REC-SVG-20010904/DTD/svg10.dtd">
<svg version="1.0" xmlns="http://www.w3.org/2000/svg"
 width="256.000000pt" height="256.000000pt" viewBox="0 0 256.000000 256.000000"
 preserveAspectRatio="xMidYMid meet">
<metadata>
Created by potrace 1.14, written by Peter Selinger 2001-2017
</metadata>
<g transform="translate(0.000000,256.000000) scale(0.100000,-0.100000)"
fill="#000000" stroke="none">
<path d="M915 2184 c-140 -18 -193 -31 -277 -64 -321 -128 -543 -420 -579
-764 -49 -463 251 -886 707 -997 67 -17 119 -22 209 -22 218 1 402 62 564 188
217 168 337 390 366 676 l6 67 281 298 c154 165 287 309 295 322 14 20 14 25
-1 47 -21 32 -22 32 -426 -5 -179 -16 -342 -30 -363 -30 -32 0 -51 11 -125 71
-106 86 -254 161 -372 188 -86 20 -229 32 -285 25z m474 -424 c103 -53 156
-182 116 -286 -60 -157 -237 -210 -367 -111 -149 114 -108 354 72 412 54 18
128 11 179 -15z"/>
</g>
</svg>
