<svg xmlns="http://www.w3.org/2000/svg" viewBox="0 0 32 32">
    <path style="text-indent:0;text-align:start;line-height:normal;text-transform:none;block-progression:tb;-inkscape-font-specification:Sans" d="M 13.03125 4 C 11.924614 4 11 4.924614 11 6.03125 L 11 7 L 4 7 L 4 9 L 11 9 L 11 9.96875 C 11 11.06511 11.907166 11.983166 13 12 C 13.01024 12.000158 13.02097 12 13.03125 12 L 13.9375 12.03125 L 13.96875 12.03125 C 15.075386 12.03125 16 11.106636 16 10 L 16 9.03125 L 28 9 L 28 7 L 16 7.03125 L 16 6.0625 C 16 4.9661395 15.091649 4.0480658 14 4.03125 L 13.96875 4.03125 L 13.0625 4 L 13.03125 4 z M 13 6 L 13.03125 6 L 13.9375 6.03125 L 13.96875 6.03125 C 13.993337 6.03125 14 6.037136 14 6.0625 L 14 10 C 14 10.01268 14.0031 10.02817 14 10.03125 L 13.96875 10.03125 L 13.0625 10 L 13.03125 10 C 13.005886 10 13 9.994114 13 9.96875 L 13 6.03125 C 13 6.018568 12.99692 6.0030795 13 6 z M 21.03125 12 C 19.924614 12 19 12.924657 19 14.03125 L 19 15 L 4 15 L 4 17 L 19 17 L 19 17.96875 C 19 19.06511 19.907166 19.983166 21 20 C 21.01024 20.000158 21.02097 20 21.03125 20 L 21.9375 20.03125 L 21.96875 20.03125 C 23.075386 20.03125 23.998047 19.105678 24 18 L 24 17.03125 L 28 17 L 28 15 L 24 15.03125 L 24 14.0625 C 24 12.96614 23.092834 12.048084 22 12.03125 L 21.96875 12.03125 L 21.0625 12 L 21.03125 12 z M 21 14 L 21.03125 14 L 21.9375 14.03125 L 21.96875 14.03125 C 21.99411 14.03125 22 14.03715 22 14.0625 L 22 18 C 21.999977 18.01316 22.0033 18.02785 22 18.03125 L 21.96875 18.03125 L 21.0625 18 L 21.03125 18 C 21.005886 18 21 17.994114 21 17.96875 L 21 14.03125 C 21 14.01955 20.9969 14.00307 21 14 z M 9.03125 20 C 7.924614 20 7 20.924657 7 22.03125 L 7 23 L 4 23 L 4 25 L 7 25 L 7 25.96875 C 7 27.06511 7.9071658 27.983166 9 28 C 9.010243 28.000158 9.020974 28 9.03125 28 L 9.9375 28.03125 L 9.96875 28.03125 C 11.075386 28.03125 11.998047 27.105678 12 26 L 12 25.03125 L 28 25 L 28 23 L 12 23.03125 L 12 22.0625 C 12 20.96614 11.092834 20.048084 10 20.03125 L 9.96875 20.03125 L 9.0625 20 L 9.03125 20 z M 9 22 L 9.03125 22 L 9.9375 22.03125 L 9.96875 22.03125 C 9.994114 22.03125 10 22.037136 10 22.0625 L 10 26 C 9.9999767 26.01316 10.0033 26.02785 10 26.03125 L 9.96875 26.03125 L 9.0625 26 L 9.03125 26 C 9.005886 26 9 25.994114 9 25.96875 L 9 25 L 9 23 L 9 22.03125 C 9 22.019546 8.9969205 22.003074 9 22 z"></path>
</svg>