<svg xmlns="http://www.w3.org/2000/svg" viewBox="0 0 32 32">
                                    <path d="M 22 5 C 18.698375 5 16 7.6983746 16 11 C 16 11.43765 16.066269 11.869512 16.15625 12.28125 C 15.577428 12.11656 14.945196 12 14.28125 12 C 12.366821 12 10.927729 12.550178 9.78125 13.28125 L 7.65625 10.59375 L 6.09375 11.84375 L 8.75 15.1875 L 9.4375 16 L 10.21875 15.3125 C 10.977572 14.633016 12.307205 14 14.28125 14 C 16.308374 14 18.3125 15.75 18.3125 15.75 L 18.34375 15.71875 C 18.845507 16.109745 19.389965 16.439258 20 16.65625 L 20.65625 14.78125 C 20.297797 14.653747 19.959367 14.500591 19.65625 14.28125 L 19.6875 14.25 C 19.6875 14.25 19.470005 14.075678 19.125 13.8125 C 19.104434 13.791359 19.082601 13.771593 19.0625 13.75 C 18.395832 13.033818 18 12.060931 18 11 C 18 8.7796254 19.779625 7 22 7 C 24.220375 7 26 8.7796254 26 11 C 26 13.121836 24.3125 14.78125 24.3125 14.78125 L 24 15.0625 L 24 15.5 C 24 19.653452 20.653452 23 16.5 23 C 12.905586 23 9.9289055 20.482924 9.1875 17.125 L 9.125 16.84375 L 8.90625 16.65625 L 3.71875 11.3125 L 2.28125 12.6875 L 7.375 17.9375 C 8.1526289 20.846933 10.257005 23.205264 13 24.3125 L 13 28 L 15 28 L 15 24.875 C 15.492615 24.954958 15.98415 25 16.5 25 C 16.669463 25 16.832858 24.977636 17 24.96875 L 17 27 L 19 27 L 19 24.65625 C 22.854112 23.581104 25.704809 20.095538 25.90625 15.9375 C 26.206858 15.644047 27.420117 14.383414 27.84375 12.375 L 30 11 L 27.8125 9.59375 C 27.17731 6.9633434 24.819153 5 22 5 z M 22.5 9 C 21.671573 9 21 9.6715729 21 10.5 C 21 11.328427 21.671573 12 22.5 12 C 23.328427 12 24 11.328427 24 10.5 C 24 9.6715729 23.328427 9 22.5 9 z M 13.3125 15.5625 L 11.46875 16.34375 C 12.379426 18.501501 14.522595 20 17 20 L 17 18 C 15.333405 18 13.917824 16.996749 13.3125 15.5625 z"></path>
                                </svg>