<svg xmlns="http://www.w3.org/2000/svg" viewBox="0 0 32 32">
                                    <path style="text-indent:0;text-align:start;line-height:normal;text-transform:none;block-progression:tb;-inkscape-font-specification:Sans" d="M 16 4 C 9.3844277 4 4 9.3844277 4 16 C 4 22.615572 9.3844277 28 16 28 C 22.615572 28 28 22.615572 28 16 C 28 9.3844277 22.615572 4 16 4 z M 16 6 C 21.534692 6 26 10.465308 26 16 C 26 21.534692 21.534692 26 16 26 C 10.465308 26 6 21.534692 6 16 C 6 10.465308 10.465308 6 16 6 z M 12 11 C 10.895431 11 10 11.895431 10 13 C 10 14.104569 10.895431 15 12 15 C 13.104569 15 14 14.104569 14 13 C 14 11.895431 13.104569 11 12 11 z M 20 11 C 18.895431 11 18 11.895431 18 13 C 18 14.104569 18.895431 15 20 15 C 21.104569 15 22 14.104569 22 13 C 22 11.895431 21.104569 11 20 11 z M 10.40625 17.09375 L 9.59375 18.90625 L 13.59375 20.71875 L 10.59375 22.09375 L 11.40625 23.90625 L 16 21.8125 L 20.59375 23.90625 L 21.40625 22.09375 L 18.40625 20.71875 L 22.40625 18.90625 L 21.59375 17.09375 L 16 19.625 L 10.40625 17.09375 z" overflow="visible" font-family="Sans"></path>
                                </svg>