<svg xmlns="http://www.w3.org/2000/svg" viewBox="0 0 32 32">
                                    <path style="line-height:normal;text-indent:0;text-align:start;text-decoration-line:none;text-decoration-style:solid;text-decoration-color:#000;text-transform:none;block-progression:tb;isolation:auto;mix-blend-mode:normal" d="M 3 6 L 3 7 L 3 26 L 29 26 L 29 6 L 3 6 z M 5 8 L 27 8 L 27 24 L 25 24 L 25 20 L 12.125 20 L 7 20 L 7 24 L 5 24 L 5 8 z M 9 22 L 11 22 L 11 24 L 9 24 L 9 22 z M 13 22 L 14.917969 22 L 14.917969 24 L 13 24 L 13 22 z M 16.917969 22 L 19 22 L 19 24 L 16.917969 24 L 16.917969 22 z M 21 22 L 23 22 L 23 24 L 21 24 L 21 22 z" font-weight="400" font-family="sans-serif" white-space="normal" overflow="visible"></path>
                                </svg>