<svg xmlns="http://www.w3.org/2000/svg" viewBox="0 0 32 32">
                                    <path style="text-indent:0;text-align:start;line-height:normal;text-transform:none;block-progression:tb;-inkscape-font-specification:Sans" d="M 16 4 C 9.383 4 4 9.383 4 16 L 6 16 C 6 10.486 10.486 6 16 6 C 19.694954 6 22.926328 8.0113529 24.65625 11 L 21 11 L 21 13 L 27 13 L 28 13 L 28 12 L 28 6 L 26 6 L 26 9.40625 C 23.855169 6.1540559 20.180193 4 16 4 z M 26 16 C 26 21.514 21.514 26 16 26 C 12.305046 26 9.0736716 23.988647 7.34375 21 L 11 21 L 11 19 L 5 19 L 4 19 L 4 20 L 4 26 L 6 26 L 6 22.59375 C 8.1448306 25.845944 11.819807 28 16 28 C 22.617 28 28 22.617 28 16 L 26 16 z" overflow="visible" font-family="Sans"></path>
                                </svg>