<svg xmlns="http://www.w3.org/2000/svg" viewBox="0 0 32 32">
                                    <path style="text-indent:0;text-align:start;line-height:normal;text-transform:none;block-progression:tb;-inkscape-font-specification:Sans" d="M 10 4 L 10 6 L 22 6 L 22 4 L 10 4 z M 7 7 L 7 9 L 25 9 L 25 7 L 7 7 z M 4 10 L 4 11 L 4 27 L 4 28 L 5 28 L 27 28 L 28 28 L 28 27 L 28 11 L 28 10 L 27 10 L 5 10 L 4 10 z M 6 12 L 26 12 L 26 26 L 6 26 L 6 12 z M 13 13.625 L 13 15.40625 L 13 22.59375 L 13 24.375 L 14.5 23.46875 L 20.5 19.84375 L 21.9375 19 L 20.5 18.15625 L 14.5 14.53125 L 13 13.625 z M 15 17.15625 L 18.09375 19 L 15 20.84375 L 15 17.15625 z" overflow="visible" font-family="Sans"></path>
                                </svg>