<?xml version="1.0" standalone="no"?>
<!DOCTYPE svg PUBLIC "-//W3C//DTD SVG 20010904//EN"
 "http://www.w3.org/TR/2001/REC-SVG-20010904/DTD/svg10.dtd">
<svg version="1.0" xmlns="http://www.w3.org/2000/svg"
 width="512.000000pt" height="512.000000pt" viewBox="0 0 512.000000 512.000000"
 preserveAspectRatio="xMidYMid meet">
<metadata>
Created by potrace 1.11, written by Peter Selinger 2001-2013
</metadata>
<g transform="translate(0.000000,512.000000) scale(0.100000,-0.100000)"
fill="#000000" stroke="none">
<path d="M2397 5103 c-1 0 -33 -4 -72 -8 -61 -5 -156 -18 -220 -29 -239 -43
-427 -104 -660 -214 -66 -31 -122 -59 -125 -62 -3 -3 -21 -14 -40 -24 -82 -45
-270 -172 -326 -221 -7 -5 -29 -23 -50 -40 -67 -52 -277 -267 -343 -350 -34
-44 -72 -90 -82 -103 -10 -12 -19 -24 -19 -26 0 -3 -22 -36 -49 -75 -27 -39
-54 -85 -61 -101 -7 -17 -16 -30 -19 -30 -4 0 -13 -16 -21 -35 -8 -19 -17 -35
-22 -35 -4 0 -7 -3 -6 -7 1 -5 -17 -47 -40 -96 -23 -48 -42 -90 -42 -92 0 -3
-8 -24 -19 -48 -25 -55 -56 -140 -74 -202 -13 -43 -18 -62 -33 -120 -22 -87
-36 -145 -38 -165 -2 -14 -7 -50 -11 -80 -4 -30 -11 -75 -16 -100 -8 -45 -5
-548 5 -605 13 -86 22 -134 32 -178 3 -16 8 -38 10 -50 6 -39 22 -101 37 -150
8 -26 13 -47 11 -47 -3 0 2 -13 11 -30 9 -16 12 -30 8 -30 -4 0 -2 -5 5 -12 7
-7 12 -18 12 -25 0 -22 108 -267 161 -364 44 -81 173 -286 188 -299 4 -3 25
-30 48 -61 168 -226 448 -469 733 -636 78 -46 252 -133 275 -139 6 -1 28 -10
50 -20 22 -10 45 -19 50 -20 6 -1 21 -6 35 -12 14 -5 27 -10 30 -10 3 0 19 -6
35 -12 59 -23 277 -80 307 -81 2 0 21 -4 43 -10 22 -5 58 -11 80 -14 22 -2 63
-7 90 -10 378 -48 810 4 1186 144 510 189 945 534 1246 988 113 170 197 341
289 588 11 31 11 32 45 155 17 63 33 128 35 145 2 16 7 39 11 50 4 11 8 31 9
45 2 28 12 116 23 201 11 84 5 411 -9 519 -16 124 -15 120 -24 158 -4 19 -9
43 -11 55 -11 89 -93 350 -154 490 -11 26 -17 47 -13 47 4 0 2 4 -4 8 -6 4
-27 39 -46 78 -103 211 -255 426 -429 610 -26 28 -45 55 -41 59 4 3 2 5 -4 3
-7 -1 -38 22 -70 52 -137 129 -324 267 -474 348 -47 25 -86 49 -88 54 -2 4
-10 8 -18 8 -7 0 -28 8 -46 18 -40 23 -215 95 -283 117 -28 9 -56 18 -63 20
-7 3 -14 5 -17 6 -2 0 -26 7 -52 15 -49 15 -208 53 -253 60 -47 7 -75 13 -80
14 -3 1 -18 3 -35 5 -16 1 -65 5 -108 10 -66 6 -385 13 -390 8z"/>
</g>
</svg>
